<svg width="48pt" height="48pt" version="1.1" viewBox="0 0 752 752">
 <defs>
  <clipPath id="a">
   <path d="m139.21 162h473.58v428h-473.58z"/>
  </clipPath>
 </defs>
 <path d="m342.65 195.99c-31.164 0-61.051 12.379-83.09 34.418-22.035 22.035-34.418 51.922-34.418 83.09 0 31.164 12.383 61.051 34.418 83.09 22.039 22.035 51.926 34.418 83.09 34.418 31.164 0 61.055-12.383 83.09-34.418 22.039-22.039 34.418-51.926 34.418-83.09-0.027344-31.16-12.414-61.031-34.445-83.062s-51.906-34.422-83.062-34.445zm0 9.8672c31.605-0.007813 61.605 13.926 81.988 38.082h-163.98c20.383-24.156 50.383-38.09 81.988-38.082zm-89.484 47.949h178.97c11.855 17.648 18.176 38.43 18.152 59.691-0.027344 9.8398-1.3906 19.629-4.043 29.105h-207.19c-2.7344-9.4609-4.1289-19.258-4.1445-29.105 0.007813-21.273 6.3633-42.055 18.254-59.691zm89.488 167.73h-0.003906c-21.727-0.050781-42.93-6.6758-60.82-19.004-17.891-12.324-31.633-29.777-39.418-50.062h200.58c-7.8672 20.219-21.652 37.59-39.555 49.844-17.906 12.25-39.09 18.812-60.785 18.828z"/>
 <path d="m423.75 298.21c0 5.6094-4.5508 10.16-10.16 10.16-5.6133 0-10.164-4.5508-10.164-10.16 0-5.6133 4.5508-10.164 10.164-10.164 5.6094 0 10.16 4.5508 10.16 10.164"/>
 <path d="m342.75 308.37c5.6367 0 10.211-4.5703 10.211-10.211s-4.5742-10.211-10.211-10.211c-5.6406 0-10.215 4.5703-10.215 10.211s4.5742 10.211 10.215 10.211z"/>
 <path d="m271.81 308.37c3.9922 0 7.5898-2.4023 9.1172-6.0898 1.5273-3.6875 0.68359-7.9297-2.1406-10.754-2.8203-2.8203-7.0625-3.6641-10.75-2.1367-3.6875 1.5273-6.0898 5.125-6.0898 9.1133 0 2.6172 1.0391 5.1289 2.8867 6.9766 1.8516 1.8516 4.3594 2.8906 6.9766 2.8906z"/>
 <g clip-path="url(#a)">
  <path d="m609.54 527.89-77.648-76.957c-2.0352-2.0508-4.8047-3.2031-7.6953-3.2031-2.8867 0-5.6562 1.1523-7.6953 3.2031l-6.9062 7.0039-49.332-49.332c15.516-19.148 26.086-41.812 30.785-66.004h12.234c11.512-0.078125 22.531-4.707 30.645-12.879 8.1133-8.168 12.668-19.215 12.668-30.73 0.082031-11.691-4.3945-22.949-12.484-31.387-8.0859-8.4414-19.148-13.391-30.828-13.801h-21.609c-15.633-36.477-44.98-65.344-81.707-80.383-36.727-15.035-77.891-15.035-114.62 0-36.727 15.039-66.07 43.906-81.707 80.383h-21.113c-11.469 0-22.473 4.5469-30.59 12.648-8.1211 8.1016-12.695 19.094-12.723 30.566-0.085938 11.727 4.3789 23.031 12.457 31.531 8.0781 8.5039 19.141 13.539 30.855 14.051h11.645c9.8477 50.602 44.828 92.684 92.773 111.62 47.949 18.938 102.24 12.117 144.02-18.094l50.219 50.418-7.793 7.793c-4.2266 4.3008-4.2266 11.191 0 15.488l77.844 76.562c2.0391 2.043 4.8125 3.1797 7.6953 3.1602 2.8789 0 5.6445-1.1367 7.6953-3.1602l43.016-43.41c4.0469-4.2344 4.0039-10.914-0.097656-15.094zm-106.26-264.32c9.0547 0.43359 17.594 4.3516 23.828 10.934 6.2305 6.5859 9.6797 15.324 9.6172 24.391 0 8.9141-3.5078 17.473-9.7656 23.824-6.2578 6.3516-14.766 9.9844-23.68 10.113h-10.656c0.92578-6.5352 1.3867-13.129 1.3828-19.73-0.058594-17.004-2.9609-33.879-8.5859-49.926zm-320.75 69.062v0.003906c-9.0742-0.53125-17.598-4.5195-23.82-11.145s-9.668-15.387-9.625-24.473c0.023437-8.875 3.5547-17.375 9.8164-23.66 6.2656-6.2812 14.758-9.8359 23.629-9.8867h17.465c-5.7148 16.059-8.6523 32.977-8.6836 50.023 0.058593 6.4336 0.52344 12.859 1.3828 19.238zm18.648-19.238c0.027344-37.516 14.953-73.488 41.496-100 26.547-26.516 62.535-41.398 100.05-41.383 37.52 0.019531 73.492 14.938 100.01 41.477 26.52 26.535 41.414 62.523 41.406 100.04-0.007813 37.52-14.918 73.496-41.453 100.02-26.531 26.523-62.512 41.426-100.03 41.426-37.516-0.027344-73.484-14.941-100.01-41.469-26.527-26.527-41.445-62.496-41.469-100.01zm237.88 116.72c5.2109-4.4023 10.121-9.1484 14.699-14.207l48.84 49.332-14.406 14.504zm163.88 106.26-43.016 43.312c-0.41797 0.38672-1.0664 0.38672-1.4805 0l-77.848-76.859c-0.21094-0.1875-0.33203-0.45703-0.33203-0.73828 0-0.28516 0.12109-0.55469 0.33203-0.74219l43.414-43.215c0.25391-0.097657 0.53516-0.097657 0.78906 0l78.141 76.762c0.38672 0.41797 0.38672 1.0625 0 1.4805z"/>
 </g>
</svg>